<svg id="Layer_2" data-name="Layer 2" xmlns="http://www.w3.org/2000/svg" viewBox="0 0 437.79 364.28"><defs><style>.cls-1,.cls-3,.cls-4{fill:#8dc63f;}.cls-1{opacity:0.5;}.cls-2{fill:#fff;}.cls-2,.cls-3{stroke:#666;}.cls-2,.cls-3,.cls-5{stroke-linecap:round;stroke-linejoin:round;stroke-width:6px;}.cls-5{fill:#666;stroke:#fff;}</style></defs><g id="Layer_1" data-name="Layer 1"><path class="cls-1" d="M61.33,282.83a171.48,171.48,0,0,0,37,49C151.14,380.68,270,471.61,398.26,363.71c65.48-55.09,60.79-119.66,60.27-135.24C453.1,64.9,212.57,43.61,213.62,123.28,215.67,278.91-11.8,136.77,61.33,282.83Z" transform="translate(-45.89 -50)"/><path class="cls-2" d="M1300.81,412.73" transform="translate(-45.89 -50)"/><circle class="cls-1" cx="107.08" cy="36.19" r="36.19"/><path class="cls-2" d="M435.4,279.69l33.17-32.59a40.5,40.5,0,0,0,.51-57.27h0a40.49,40.49,0,0,0-57.27-.51L378.63,221.9Z" transform="translate(-45.89 -50)"/><path class="cls-3" d="M379.45,221.31,346.28,253.9a40.5,40.5,0,0,0-.51,57.27h0a40.49,40.49,0,0,0,57.27.51l33.18-32.58Z" transform="translate(-45.89 -50)"/><line class="cls-3" x1="378.11" y1="146" x2="306.11" y2="217"/><line class="cls-3" x1="301.11" y1="224.3" x2="301.11" y2="224"/><polygon class="cls-2" points="146.11 143 146.11 158 131.11 183 260.11 183 242.11 154 242.11 139 146.11 139 146.11 143"/><path class="cls-2" d="M187.85,221H293.53a17.64,17.64,0,0,1,17.64,17.64v99.22a62.31,62.31,0,0,1-7.92,30.77c-.11.18-.21.36-.31.54A34,34,0,0,1,273.57,386h-72.4s-25.66-.92-31.36-29.79a52.75,52.75,0,0,1-.9-11.57l2.74-107.85A16.21,16.21,0,0,1,187.85,221Z" transform="translate(-45.89 -50)"/><rect class="cls-3" x="131.11" y="105" width="129" height="34" rx="12.14"/><rect class="cls-4" x="183.96" y="212" width="21.92" height="83"/><rect class="cls-4" x="228.91" y="262.5" width="22.19" height="82" transform="translate(497.61 13.5) rotate(90)"/><path class="cls-2" d="M183,241V351" transform="translate(-45.89 -50)"/><line class="cls-2" x1="137.11" y1="310" x2="137.11" y2="310"/><line class="cls-5" x1="143.26" y1="117.57" x2="235.11" y2="117.57"/><path class="cls-5" d="M293.32,167H294" transform="translate(-45.89 -50)"/><polyline class="cls-2" points="20.72 100.61 10.45 72.12 31.81 64.42 42.09 92.91"/><path class="cls-3" d="M57.89,155.89l42.46-15.32s5.85-1,8.23,5.54l34.51,95.68L87.19,262l-35.53-98.5S49.42,158.94,57.89,155.89Z" transform="translate(-45.89 -50)"/><polyline class="cls-2" points="80 197.99 90.27 226.48 68.91 234.19 58.63 205.7"/><line class="cls-3" x1="32.02" y1="215.3" x2="106.6" y2="188.39"/><line class="cls-2" x1="60.78" y1="238.18" x2="103.11" y2="222.91"/><line class="cls-2" x1="13.37" y1="134.55" x2="41.32" y2="124.47"/><line class="cls-2" x1="18.17" y1="147.85" x2="34.3" y2="142.04"/><line class="cls-2" x1="22.24" y1="159.14" x2="38.37" y2="153.32"/><line class="cls-2" x1="26.17" y1="170.02" x2="54.12" y2="159.94"/><line class="cls-2" x1="29.81" y1="180.1" x2="45.93" y2="174.29"/><line class="cls-2" x1="34.17" y1="192.2" x2="50.3" y2="186.38"/><line class="cls-2" x1="21.13" y1="68.27" x2="3" y2="18.01"/><line class="cls-5" x1="53.35" y1="102.66" x2="79.72" y2="175.76"/><circle class="cls-2" cx="309.11" cy="80" r="37"/><line class="cls-2" x1="284.2" y1="52.64" x2="332.74" y2="108.47"/></g></svg>