<svg viewBox="0 0 382.15 419.11" xmlns="http://www.w3.org/2000/svg"><path d="m441.48 333.8c-3.94 20.26-18.65 42.25-35.48 54.2-58.63 41.63-161.34 113.55-289.22 5.2-111.13-94.2 17.31-142.68-13.35-209.2-78.56-170.43 219-107 207.65-28.09-22.14 154.09 160.35 24.09 130.4 177.89z" fill="#8dc63f" opacity=".5" transform="translate(-62.67 -46.89)"/><circle cx="350.84" cy="145.63" fill="#8dc63f" opacity=".5" r="29.5"/><path d="m220.84 201.13h132.12v109.19h-132.12z" fill="#fff" stroke="#666" stroke-linecap="round" stroke-linejoin="round" stroke-width="7"/><path d="m369.55 79.2c-.7-1-1.32-2.14-1.92-3.22-1.27-2.25-2.47-4.38-4-5.4a4.57 4.57 0 0 0 -.58-.32 20.15 20.15 0 0 0 -5.79-1.17 43.58 43.58 0 0 1 -5.39-.86 35 35 0 0 1 2.85 15.12 23 23 0 0 1 14.83-4.15z" fill="#ececec" transform="translate(-62.67 -46.89)"/><path d="m354.21 123.36a32.66 32.66 0 0 1 -3.79-4.72 18.47 18.47 0 0 1 -2 3.14 16.37 16.37 0 0 1 -6.74 5 26.69 26.69 0 0 1 10.93 4.11 16.36 16.36 0 0 1 1.6-7.53z" fill="#ececec" transform="translate(-62.67 -46.89)"/><path d="m302.07 123.92a25.24 25.24 0 0 1 -.82 3.1 23.87 23.87 0 0 1 2.62.44 36.81 36.81 0 0 1 -1.8-3.54z" fill="#ececec" transform="translate(-62.67 -46.89)"/><path d="m329.23 80.39a5.5 5.5 0 0 0 3.17-7.79 5 5 0 0 0 -6-2.5 4.08 4.08 0 0 1 -4.9-2 3.09 3.09 0 0 1 1.78-4.39 13.2 13.2 0 0 1 15.8 6.6 11.71 11.71 0 0 1 -6.73 16.57c-.29.1-.58.2-.87.28a31.1 31.1 0 0 1 11 5c.62.44 1.21.91 1.77 1.39 4.76-8.18 3-18.44.45-23.76a18.09 18.09 0 0 0 -21.68-9 10.39 10.39 0 0 0 -6.36 5.91 10.63 10.63 0 0 0 .41 8.74 10.11 10.11 0 0 0 12.16 4.95z" fill="#8dc63f" transform="translate(-62.67 -46.89)"/><path d="m308.22 154.05a19.61 19.61 0 0 1 3.9 2.49c3-7.73 2.16-12-.14-15.84a14.33 14.33 0 0 0 -7.91-6.22 13.51 13.51 0 0 0 -9.85.43 8.15 8.15 0 0 0 -3.5 11.92 7.73 7.73 0 0 0 9.56 3.12 4.1 4.1 0 0 0 1.75-6 3.47 3.47 0 0 0 -4.29-1.41 4.07 4.07 0 0 1 -5.05-1.64 3.11 3.11 0 0 1 1.33-4.56 11.65 11.65 0 0 1 14.4 4.69 10.48 10.48 0 0 1 -1 12.67c.25.11.58.23.8.35z" fill="#8dc63f" transform="translate(-62.67 -46.89)"/><path d="m339.76 163.44c.77.3 1.51.62 2.19.94l1.8.86c.55.27 1.1.54 1.65.79a11.65 11.65 0 0 0 4.58 1.39 9.89 9.89 0 0 0 4.49-1.72c6.65-8.66 4.38-22-5-28.79a18.19 18.19 0 0 0 -12.2-3.46 14.86 14.86 0 0 0 -10.5 5.38c-3.88 4.84-2.49 12.07 3.09 16.1 4.12 3 9.81 2.51 12.67-1.07a5.39 5.39 0 0 0 1.07-4.45 6.68 6.68 0 0 0 -2.71-4.12 4.63 4.63 0 0 0 -6.26.53 3.79 3.79 0 0 1 -5.14.44 3.37 3.37 0 0 1 -.93-4.83c3.74-4.67 11.16-5.3 16.54-1.4a14.2 14.2 0 0 1 5.77 8.77 11.45 11.45 0 0 1 -2.27 9.45 14.81 14.81 0 0 1 -8.84 5.19z" fill="#8dc63f" transform="translate(-62.67 -46.89)"/><path d="m396.85 122.53.25-.6c1-2.3 1.92-4.47 1.52-6.19-.36-1.55-2.11-3.33-4-5.21-1.09-1.11-2.19-2.25-3.18-3.47a16.28 16.28 0 0 1 -4.84 6.17 15 15 0 0 1 -3 1.81 36.09 36.09 0 0 1 3.65 1.32 31 31 0 0 1 9.6 6.17z" fill="#ececec" transform="translate(-62.67 -46.89)"/><path d="m305.75 93.47a2.88 2.88 0 0 1 .65-.13 25.22 25.22 0 0 1 14.1-6.73 18.08 18.08 0 0 1 -10.06-8.93 17 17 0 0 1 -.67-14 16.18 16.18 0 0 1 5.23-6.82l-.17-.08-1.8-.86-1.65-.79a12 12 0 0 0 -4.58-1.39c-1.87 0-3.88 1.33-6 2.68l-1.45.9a20.84 20.84 0 0 1 7.58 9 13.86 13.86 0 0 1 -8.93 19.17 15.47 15.47 0 0 1 -18.19-8.49 10 10 0 0 1 6.42-13.83 4.09 4.09 0 0 1 4.83 2.24 3.09 3.09 0 0 1 -2 4.29 3.79 3.79 0 0 0 -2.43 5.3 7.27 7.27 0 0 0 8.56 4 7.65 7.65 0 0 0 4.92-10.61 13.67 13.67 0 0 0 -16.11-7.52 13.69 13.69 0 0 0 -8.81 19c4.42 10.18 19.55 16.92 30.56 13.6z" fill="#8dc63f" transform="translate(-62.67 -46.89)"/><path d="m332.52 107a6.71 6.71 0 0 0 -4.52-1.26 5.49 5.49 0 0 0 -3.87 2 7 7 0 0 0 -1.34 5.76 8.65 8.65 0 0 0 3.53 5.31c5.24 3.75 12.42 3.1 16-1.45 4.78-6 3-15-4-20-9.13-6.53-21.64-5.39-27.9 2.54-3.54 4.49-4.73 10.42-3.33 16.69 1.53 6.92 6.11 13.67 12.75 19 .27-.4.55-.79.85-1.18a20.79 20.79 0 0 1 9.72-6.69 21.26 21.26 0 0 1 -8.3-3.59 16.21 16.21 0 0 1 -6.62-10 13 13 0 0 1 2.51-10.69 12.18 12.18 0 0 1 8.65-4.44 15 15 0 0 1 10.05 2.79 3.37 3.37 0 0 1 1 4.82 3.79 3.79 0 0 1 -5.18.39z" fill="#ececec" transform="translate(-62.67 -46.89)"/><path d="m320.53 154.93a43.34 43.34 0 0 1 -2.49 6.89 9.84 9.84 0 0 0 1.89 1.22 4.79 4.79 0 0 0 .61.24c1.8.54 4.2.08 6.74-.4.82-.16 1.65-.31 2.49-.44l-1-.42a20 20 0 0 1 -3.11-1.82 21.55 21.55 0 0 1 -5.13-5.27z" fill="#ececec" transform="translate(-62.67 -46.89)"/><path d="m359.06 89.25c-4.11 3.23-6.38 8.47-6.23 14.39a23 23 0 0 0 5.65 14.28 17.79 17.79 0 0 1 5.47-3.07 23.65 23.65 0 0 1 3.48-.91 18.82 18.82 0 0 1 -4.12-3.28 13.29 13.29 0 0 1 -3.77-9.54 11.33 11.33 0 0 1 4.38-8.63 11.6 11.6 0 0 1 8.51-2.28 13.39 13.39 0 0 1 8.3 4.14 3.21 3.21 0 0 1 -.17 4.81 4 4 0 0 1 -5.22-.58 4.84 4.84 0 0 0 -6.36-.7 5.34 5.34 0 0 0 -2.06 4.06 6.3 6.3 0 0 0 1.77 4.48 10.27 10.27 0 0 0 6.36 3.17 8.85 8.85 0 0 0 6.52-1.75 10 10 0 0 0 3.88-7.62 11.79 11.79 0 0 0 -3.34-8.43 18.34 18.34 0 0 0 -11.38-5.67 15.87 15.87 0 0 0 -11.67 3.13z" fill="#8dc63f" transform="translate(-62.67 -46.89)"/><path d="m350.84 174.27a18.61 18.61 0 0 1 -8.26-2.16c-.59-.27-1.19-.56-1.78-.85l-1.67-.8a15.51 15.51 0 0 0 -4.13-1.46 18.74 18.74 0 0 0 -5.64.56c-3.2.61-6.82 1.3-10.54.18a12.25 12.25 0 0 1 -1.73-.66 26.45 26.45 0 0 1 -6.83-5.15 21.11 21.11 0 0 0 -4.87-3.84 21.56 21.56 0 0 0 -6.08-1.25 26.68 26.68 0 0 1 -8.31-1.84 14 14 0 0 1 -1.62-.9c-3.25-2.11-5.06-5.33-6.66-8.16a19 19 0 0 0 -3.21-4.68 15.94 15.94 0 0 0 -3.74-2.22l-1.69-.76-1.8-.81a18.89 18.89 0 0 1 -7-4.92c-2.43-3-2.93-6.64-3.37-9.81-.1-.7-.19-1.4-.3-2-2.71 12-5.43 34.94 3.05 63.82a47.32 47.32 0 0 1 13.79 19.16 13.2 13.2 0 0 1 2.57.87l4.69 2.18a13.21 13.21 0 0 1 2.33 1.4 47.34 47.34 0 0 1 23.54-1.83c27.54-12.17 43.47-29.35 50.69-38.83-.57.33-1.15.7-1.74 1.07-2.72 1.65-5.79 3.59-9.69 3.69z" fill="#fff" transform="translate(-62.67 -46.89)"/><path d="m292.35 216.17a9.55 9.55 0 0 1 -5.47 11.8s.41.87.74 1.61a36.7 36.7 0 0 0 17.16 17.56c.9-.37 4.33-2.44 9.51-13.61s4.56-15.13 4.26-16.05c-10.06-4.58-19.83-3.22-26.2-1.31z" fill="#8dc63f" transform="translate(-62.67 -46.89)"/><path d="m279.45 228.57a12.5 12.5 0 0 1 -1.29-.37c2.61 12.65 3.63 31 4 39.32l5.17-.83a88.87 88.87 0 0 0 -6.51-35.06c-.54-1.07-.99-2.1-1.37-3.06z" fill="#8dc63f" transform="translate(-62.67 -46.89)"/><path d="m299.56 106.49a24.17 24.17 0 0 1 1.54-5.33 34.41 34.41 0 0 1 -6-.38 24.21 24.21 0 0 1 4.46 5.71z" fill="#ececec" transform="translate(-62.67 -46.89)"/><path d="m271.64 232.83c-6.93 4.12-14.76 9.67-20.89 14.22l-.21.42c-.1 1.56.13 7.49 8.93 11.58s13.43.46 14.6-.66c.07-.14.13-.28.19-.42-.48-7.62-1.26-17.18-2.62-25.14z" fill="#ececec" transform="translate(-62.67 -46.89)"/><path d="m395.18 131.67c-2.52-4.93-7-7.67-10.43-9.12-5.84-2.48-12.78-3-17.67-1.26a10.35 10.35 0 0 0 -5.94 14.65 10.12 10.12 0 0 0 12.11 5.06 5.58 5.58 0 0 0 3.38-3.15 5.66 5.66 0 0 0 -.22-4.65 4.89 4.89 0 0 0 -2.54-2.36 4.82 4.82 0 0 0 -3.44-.14 4.09 4.09 0 0 1 -4.91-2 3.1 3.1 0 0 1 1.78-4.4 13.19 13.19 0 0 1 15.8 6.6 12.07 12.07 0 0 1 .47 9.89 11.77 11.77 0 0 1 -7.2 6.69 17.55 17.55 0 0 1 -11.75-.19 29.54 29.54 0 0 1 .69 3.16 26.7 26.7 0 0 1 -.45 10.71 37.23 37.23 0 0 1 6.25.11c2.64.2 5.13.39 6.55-.33s2.62-2.91 3.74-5.15a21.56 21.56 0 0 1 3.8-5.87 23.28 23.28 0 0 1 5.92-3.85c2.34-1.21 4.54-2.35 5.25-3.89s.16-3.95-.42-6.51c-.3-1.34-.6-2.67-.77-4z" fill="#ececec" transform="translate(-62.67 -46.89)"/><path d="m275 219.44 4.69 2.17a3.79 3.79 0 1 0 3.17-6.82l-4.69-2.18a3.79 3.79 0 1 0 -3.17 6.83z" fill="#8dc63f" transform="translate(-62.67 -46.89)"/><path d="m278.61 120.05a5.2 5.2 0 0 0 3.18-3 5.31 5.31 0 0 0 -.21-4.37 4.64 4.64 0 0 0 -5.58-2.28 4.08 4.08 0 0 1 -4.9-2.05 3.09 3.09 0 0 1 1.78-4.39 12.33 12.33 0 0 1 8.85.36 12.54 12.54 0 0 1 6.53 6.06 11.71 11.71 0 0 1 .46 9.62 11.46 11.46 0 0 1 -7 6.5 17.23 17.23 0 0 1 -12.3-.54 10.48 10.48 0 0 0 1.62 4.82 12 12 0 0 0 4 2.6l1.67.75 1.82.82a27.84 27.84 0 0 1 4.17 2.31 14.22 14.22 0 0 1 7.77-8.56 19.15 19.15 0 0 1 2.18-.83 20 20 0 0 0 .79-17.89 16.92 16.92 0 0 0 -8.78-8.15 16.62 16.62 0 0 0 -11.9-.49 9.9 9.9 0 0 0 -6 5.62 10.09 10.09 0 0 0 .4 8.31 9.56 9.56 0 0 0 11.45 4.78z" fill="#8dc63f" transform="translate(-62.67 -46.89)"/><path d="m268.39 81.92a21.65 21.65 0 0 1 -1.78-7.26l-.93.48c-2.33 1.21-4.54 2.35-5.25 3.88s-.16 4 .42 6.52a23.18 23.18 0 0 1 .88 7 21.48 21.48 0 0 1 -2 6.69c-1 2.3-1.92 4.47-1.52 6.19a5 5 0 0 0 .76 1.58 15.56 15.56 0 0 1 .87-3 16.15 16.15 0 0 1 9.86-9.16 23.39 23.39 0 0 1 8.3-1.22 29.59 29.59 0 0 1 -9.61-11.7z" fill="#ececec" transform="translate(-62.67 -46.89)"/><path d="m265.52 218.05a9.54 9.54 0 0 1 5.48-11.79c-2.65-6.09-7.91-14.44-17.9-19.17-.9.36-4.33 2.44-9.52 13.61s-4.56 15.12-4.26 16.05a36.73 36.73 0 0 0 24.51 1.77z" fill="#8dc63f" transform="translate(-62.67 -46.89)"/><path d="m269.86 224.11c-.49.17-1 .33-1.54.49l-1.61.45a88.49 88.49 0 0 0 -31 17.66l2.7 4.48c6.56-5.09 21.25-16.17 32.6-22.34a10.78 10.78 0 0 1 -1.15-.74z" fill="#8dc63f" transform="translate(-62.67 -46.89)"/><path d="m402.44 129.71a16.6 16.6 0 0 1 1.56-4.77c1.27-3 2.71-6.32 1.83-10.08-.82-3.51-3.53-6.27-5.93-8.71a22 22 0 0 1 -3.78-4.53 17.32 17.32 0 0 1 -1.21-5.19c-.44-3.16-.94-6.76-3.37-9.8a18.75 18.75 0 0 0 -7-4.92c-.6-.28-1.2-.54-1.81-.81s-1.13-.5-1.68-.76a16 16 0 0 1 -3.75-2.22 19.14 19.14 0 0 1 -3.21-4.68c-1.6-2.84-3.41-6.06-6.66-8.17a12.64 12.64 0 0 0 -1.62-.89 26.14 26.14 0 0 0 -8.35-1.89 21.41 21.41 0 0 1 -6.05-1.29 21.21 21.21 0 0 1 -4.88-3.84 26.45 26.45 0 0 0 -6.83-5.15 13.12 13.12 0 0 0 -1.73-.67c-3.71-1.12-7.34-.42-10.54.19a19.07 19.07 0 0 1 -5.64.56 16.05 16.05 0 0 1 -4.11-1.42l-1.67-.8-1.79-.86a18.88 18.88 0 0 0 -8.22-2.12c-3.9.11-7 2-9.67 3.76a17.45 17.45 0 0 1 -4.74 2.42 21.79 21.79 0 0 1 -5.91 0c-3.4-.26-7.26-.55-10.48 1.09-3.43 1.76-5.06 5-6.51 7.9a16.73 16.73 0 0 1 -2.69 4.31 18.8 18.8 0 0 1 -4.34 2.71c-3 1.57-6.47 3.34-8.07 6.77s-.73 7.21 0 10.54a18.82 18.82 0 0 1 .73 5.06 17.13 17.13 0 0 1 -1.57 4.78c-1.27 3-2.71 6.32-1.83 10.07.73 3.12 2.95 5.65 5.11 7.88-2.64 8.54-8.51 33.45-.4 66.7a6.73 6.73 0 0 0 -4.32-.61c-4.82.84-9.6 6.48-14.6 17.26s-6.23 18.07-3.76 22.29a6.82 6.82 0 0 0 3 2.8l.46.19a42.44 42.44 0 0 0 10.22 3.2 101.1 101.1 0 0 0 -18.31 13.29 3.14 3.14 0 0 0 -.49 4l6.5 10.7a4.11 4.11 0 0 0 1.78 1.57 3.53 3.53 0 0 0 .9.3 3.63 3.63 0 0 0 3.06-.66c.06 0 1.52-1.22 3.91-3.06 1.45 4.36 5.05 9.42 12.66 13s13.81 3 18.07 1.31c.14 3 .19 4.89.19 5a3.88 3.88 0 0 0 2.28 3.26 4 4 0 0 0 2.35.34l12.34-2a3.15 3.15 0 0 0 2.75-3 101.63 101.63 0 0 0 -1.62-22.57 42.74 42.74 0 0 0 9 5.74c.13.08.28.15.44.23a6.81 6.81 0 0 0 4.08.49c4.83-.83 9.6-6.48 14.61-17.25s6.23-18.07 3.76-22.3a6.74 6.74 0 0 0 -3.25-2.9c30.11-15 45.29-34.93 50.64-43.27a.56.56 0 0 0 .05-.08c3.1.22 6.46.28 9.32-1.17 3.43-1.76 5.07-5 6.51-7.91a16.66 16.66 0 0 1 2.64-4.27 18.8 18.8 0 0 1 4.34-2.71c3-1.57 6.47-3.35 8.07-6.78s.73-7.2 0-10.53a18.45 18.45 0 0 1 -.77-5.07zm-15.81-16.48a16.28 16.28 0 0 0 4.84-6.17c1 1.22 2.09 2.36 3.18 3.47 1.86 1.88 3.61 3.66 4 5.21.4 1.72-.53 3.89-1.52 6.19l-.25.6a31 31 0 0 0 -9.54-6.17 36.09 36.09 0 0 0 -3.65-1.32 15 15 0 0 0 2.94-1.81zm-15.9-27.11a18.34 18.34 0 0 1 11.38 5.67 11.79 11.79 0 0 1 3.34 8.43 10 10 0 0 1 -3.88 7.62 8.85 8.85 0 0 1 -6.52 1.75 10.27 10.27 0 0 1 -6.36-3.17 6.3 6.3 0 0 1 -1.77-4.48 5.34 5.34 0 0 1 2.08-4.06 4.84 4.84 0 0 1 6.36.7 4 4 0 0 0 5.22.58 3.21 3.21 0 0 0 .17-4.81 13.39 13.39 0 0 0 -8.3-4.14 11.6 11.6 0 0 0 -8.51 2.28 11.33 11.33 0 0 0 -4.38 8.63 13.29 13.29 0 0 0 3.77 9.54 18.82 18.82 0 0 0 4.12 3.28 23.65 23.65 0 0 0 -3.48.91 17.79 17.79 0 0 0 -5.47 3.07 23 23 0 0 1 -5.65-14.28c-.15-5.92 2.12-11.16 6.23-14.39a15.87 15.87 0 0 1 11.65-3.13zm-19.83 62.68a14.2 14.2 0 0 0 -5.77-8.77c-5.38-3.9-12.8-3.27-16.54 1.4a3.37 3.37 0 0 0 .93 4.83 3.79 3.79 0 0 0 5.14-.44 4.63 4.63 0 0 1 6.26-.53 6.68 6.68 0 0 1 2.71 4.12 5.39 5.39 0 0 1 -1.07 4.45c-2.86 3.58-8.55 4.06-12.67 1.07-5.58-4-7-11.26-3.09-16.1a14.86 14.86 0 0 1 10.5-5.38 18.19 18.19 0 0 1 12.2 3.46c9.35 6.77 11.62 20.13 5 28.79a9.89 9.89 0 0 1 -4.49 1.72 11.65 11.65 0 0 1 -4.61-1.42c-.55-.25-1.1-.52-1.65-.79l-1.8-.86c-.68-.32-1.42-.64-2.19-.94a14.81 14.81 0 0 0 8.87-5.19 11.45 11.45 0 0 0 2.27-9.42zm-21.13 13.64c-.84.13-1.67.28-2.49.44-2.54.48-4.94.94-6.74.4a4.79 4.79 0 0 1 -.61-.24 9.84 9.84 0 0 1 -1.89-1.22 43.34 43.34 0 0 0 2.49-6.89 21.55 21.55 0 0 0 5.14 5.27 20 20 0 0 0 3.11 1.82zm6.93-60.69a15 15 0 0 0 -10.05-2.75 12.18 12.18 0 0 0 -8.61 4.48 13 13 0 0 0 -2.51 10.77 16.21 16.21 0 0 0 6.62 10 21.26 21.26 0 0 0 8.3 3.59 20.79 20.79 0 0 0 -9.72 6.69c-.3.39-.58.78-.85 1.18-6.64-5.32-11.22-12.07-12.75-19-1.4-6.27-.21-12.2 3.33-16.69 6.26-7.93 18.77-9.07 27.9-2.54 7 5 8.75 14 4 20-3.59 4.55-10.77 5.2-16 1.45a8.65 8.65 0 0 1 -3.53-5.31 7 7 0 0 1 1.34-5.76 5.49 5.49 0 0 1 3.87-2 6.71 6.71 0 0 1 4.52 1.26 3.79 3.79 0 0 0 5.14-.47 3.37 3.37 0 0 0 -1-4.9zm-28.28 39.25a11.65 11.65 0 0 0 -14.4-4.69 3.11 3.11 0 0 0 -1.33 4.56 4.07 4.07 0 0 0 5.05 1.64 3.47 3.47 0 0 1 4.26 1.49 4.1 4.1 0 0 1 -1.75 6 7.73 7.73 0 0 1 -9.56-3.12 8.15 8.15 0 0 1 3.5-11.92 13.51 13.51 0 0 1 9.85-.43 14.33 14.33 0 0 1 7.96 6.17c2.3 3.84 3.17 8.11.14 15.84a19.61 19.61 0 0 0 -3.9-2.49c-.27-.12-.55-.24-.83-.34a10.48 10.48 0 0 0 1.01-12.71zm-6.35-17.12a36.81 36.81 0 0 0 1.8 3.54 23.87 23.87 0 0 0 -2.62-.44 25.24 25.24 0 0 0 .82-3.06zm39.61 2.86a16.37 16.37 0 0 0 6.74-5 18.47 18.47 0 0 0 2-3.14 32.66 32.66 0 0 0 3.79 4.72 16.36 16.36 0 0 0 -1.6 7.53 26.69 26.69 0 0 0 -10.93-4.07zm15.54-57.69a20.15 20.15 0 0 1 5.78 1.21 4.57 4.57 0 0 1 .58.32c1.57 1 2.77 3.15 4 5.4.6 1.08 1.22 2.17 1.92 3.22a23 23 0 0 0 -14.87 4.15 35 35 0 0 0 -2.85-15.12 43.58 43.58 0 0 0 5.44.86zm-34.15-8.4a18.09 18.09 0 0 1 21.68 9c2.58 5.32 4.31 15.58-.45 23.76-.56-.48-1.15-1-1.77-1.39a31.1 31.1 0 0 0 -11-5c.29-.08.58-.18.87-.28a11.71 11.71 0 0 0 6.73-16.57 13.2 13.2 0 0 0 -15.8-6.6 3.09 3.09 0 0 0 -1.78 4.39 4.08 4.08 0 0 0 4.9 2 5 5 0 0 1 6 2.5 5.5 5.5 0 0 1 -3.17 7.79 10.11 10.11 0 0 1 -12.11-5 10.63 10.63 0 0 1 -.41-8.74 10.39 10.39 0 0 1 6.31-5.82zm-39.07.22a13.67 13.67 0 0 1 16.09 7.47 7.65 7.65 0 0 1 -4.9 10.66 7.27 7.27 0 0 1 -8.56-4 3.79 3.79 0 0 1 2.43-5.25 3.09 3.09 0 0 0 2-4.29 4.09 4.09 0 0 0 -4.83-2.24 10 10 0 0 0 -6.42 13.78 15.47 15.47 0 0 0 18.19 8.49 13.86 13.86 0 0 0 8.92-19.2 20.84 20.84 0 0 0 -7.58-9l1.45-.9c2.13-1.35 4.14-2.63 6-2.68a12 12 0 0 1 4.58 1.39l1.65.79 1.8.86.17.08a16.18 16.18 0 0 0 -5.25 6.84 17 17 0 0 0 .67 14 18.08 18.08 0 0 0 10.06 8.93 25.22 25.22 0 0 0 -14.1 6.73 2.88 2.88 0 0 0 -.65.13c-11 3.32-26.14-3.42-30.54-13.61a13.69 13.69 0 0 1 8.81-19zm15.54 45.62a24.21 24.21 0 0 0 -4.42-5.71 34.41 34.41 0 0 0 6 .38 24.17 24.17 0 0 0 -1.56 5.33zm-29.87-11.59a16.15 16.15 0 0 0 -9.86 9.16 15.56 15.56 0 0 0 -.87 3 5 5 0 0 1 -.76-1.58c-.4-1.72.53-3.89 1.52-6.19a21.48 21.48 0 0 0 2-6.69 23.18 23.18 0 0 0 -.88-7c-.58-2.56-1.14-5-.42-6.52s2.92-2.67 5.25-3.88l.93-.48a21.65 21.65 0 0 0 1.78 7.26 29.59 29.59 0 0 0 9.64 11.64 23.39 23.39 0 0 0 -8.33 1.28zm3.12 6.44a16.62 16.62 0 0 1 11.9.49 16.92 16.92 0 0 1 8.78 8.15 20 20 0 0 1 -.79 17.89 19.15 19.15 0 0 0 -2.18.83 14.22 14.22 0 0 0 -7.77 8.56 27.84 27.84 0 0 0 -4.17-2.31l-1.82-.82-1.67-.75a12 12 0 0 1 -4-2.6 10.48 10.48 0 0 1 -1.62-4.82 17.23 17.23 0 0 0 12.3.54 11.46 11.46 0 0 0 7-6.5 11.71 11.71 0 0 0 -.46-9.62 12.54 12.54 0 0 0 -6.53-6.06 12.33 12.33 0 0 0 -8.85-.36 3.09 3.09 0 0 0 -1.78 4.39 4.08 4.08 0 0 0 4.9 2.05 4.64 4.64 0 0 1 5.57 2.33 5.31 5.31 0 0 1 .21 4.37 5.2 5.2 0 0 1 -3.18 3 9.56 9.56 0 0 1 -11.46-4.78 10.09 10.09 0 0 1 -.4-8.31 9.9 9.9 0 0 1 6.02-5.67zm-33.47 115.41c-.3-.93-.94-4.84 4.26-16.05s8.62-13.25 9.52-13.61c10 4.73 15.25 13.08 17.9 19.17a9.54 9.54 0 0 0 -5.48 11.79l-1.69.47a36.73 36.73 0 0 1 -24.51-1.77zm-.95 30.45-2.7-4.48a88.49 88.49 0 0 1 31-17.66l1.61-.45c.53-.16 1.05-.32 1.54-.49a10.78 10.78 0 0 0 1.11.75c-11.31 6.13-26 17.24-32.56 22.33zm34.4-32.95a4 4 0 0 1 5.41-1.64l4.69 2.18a3.79 3.79 0 1 1 -3.17 6.82l-4.7-2.17a4 4 0 0 1 -2.23-5.19zm-13.3 44.8c-8.8-4.09-9-10-8.93-11.58l.21-.42c6.13-4.55 14-10.1 20.89-14.22 1.32 8 2.14 17.52 2.62 25.14-.06.14-.12.28-.19.42-1.17 1.12-5.84 4.73-14.6.66zm27.83 7.64-5.17.83c-.34-8.3-1.36-26.67-4-39.32a12.5 12.5 0 0 0 1.29.37c.38 1 .83 2 1.34 3.06a88.87 88.87 0 0 1 6.54 35.06zm27-33.16c-5.18 11.17-8.61 13.24-9.51 13.61a36.7 36.7 0 0 1 -17.16-17.56c-.33-.74-.73-1.58-.74-1.61a9.55 9.55 0 0 0 5.47-11.8c6.37-1.91 16.14-3.27 26.2 1.31.29.92.92 4.88-4.27 16.05zm-2.73-25.25a47.34 47.34 0 0 0 -23.57 1.83 13.21 13.21 0 0 0 -2.33-1.4l-4.67-2.18a13.2 13.2 0 0 0 -2.57-.87 47.32 47.32 0 0 0 -13.79-19.16c-8.48-28.88-5.76-51.85-3.05-63.82.11.65.2 1.35.3 2 .44 3.17.94 6.76 3.37 9.81a18.89 18.89 0 0 0 7 4.92l1.8.81 1.69.76a15.94 15.94 0 0 1 3.74 2.22 19 19 0 0 1 3.21 4.68c1.6 2.83 3.41 6 6.66 8.16a14 14 0 0 0 1.62.9 26.68 26.68 0 0 0 8.35 1.89 21.56 21.56 0 0 1 6.08 1.25 21.11 21.11 0 0 1 4.87 3.84 26.45 26.45 0 0 0 6.83 5.15 12.25 12.25 0 0 0 1.73.66c3.72 1.12 7.34.43 10.54-.18a18.74 18.74 0 0 1 5.62-.55 15.51 15.51 0 0 1 4.12 1.42l1.67.8c.59.29 1.19.58 1.78.85a18.61 18.61 0 0 0 8.26 2.16c3.9-.1 7-2 9.67-3.75.59-.37 1.17-.74 1.74-1.07-7.24 9.52-23.14 26.7-50.68 38.87zm79.55-62.28a23.28 23.28 0 0 0 -5.92 3.85 21.56 21.56 0 0 0 -3.8 5.87c-1.12 2.24-2.18 4.35-3.74 5.15s-3.91.53-6.55.33a37.23 37.23 0 0 0 -6.25-.11 26.7 26.7 0 0 0 .45-10.71 29.54 29.54 0 0 0 -.69-3.16 17.55 17.55 0 0 0 11.75.19 11.77 11.77 0 0 0 7.2-6.69 12.07 12.07 0 0 0 -.47-9.89 13.19 13.19 0 0 0 -15.8-6.6 3.1 3.1 0 0 0 -1.78 4.4 4.09 4.09 0 0 0 4.91 2 4.82 4.82 0 0 1 3.44.14 4.89 4.89 0 0 1 2.54 2.36 5.66 5.66 0 0 1 .22 4.65 5.58 5.58 0 0 1 -3.38 3.15 10.12 10.12 0 0 1 -12.11-5.06 10.35 10.35 0 0 1 5.94-14.65c4.89-1.71 11.83-1.22 17.67 1.26 3.4 1.45 7.91 4.19 10.43 9.12.17 1.33.47 2.66.77 4 .58 2.56 1.14 5 .42 6.51s-2.91 2.71-5.25 3.89z" fill="#666" transform="translate(-62.67 -46.89)"/><path d="m280.48 177.27-41.29-20.18 26.61-20.19 26.61 40.37" fill="#8dc63f" stroke="#666" stroke-linecap="round" stroke-linejoin="round" stroke-width="7"/><path d="m297.91 178.19 41.29-20.19-26.61-20.18-26.6 40.37" fill="#8dc63f" stroke="#666" stroke-linecap="round" stroke-linejoin="round" stroke-width="7"/><path d="m209.83 178.19h154.15v26.61h-154.15z" fill="#fff" stroke="#666" stroke-linecap="round" stroke-linejoin="round" stroke-width="7"/><path d="m278.65 177.27h18.35v130.29h-18.35z" fill="#8dc63f" stroke="#666" stroke-linecap="round" stroke-linejoin="round" stroke-width="7"/><g transform="translate(-62.67 -46.89)"><path d="m349.76 279.8s-12.33-17.45-27.63-5.77-11.13 40.97 29.67 59.27c0 0 45.48-20.79 34.21-50.33-.01.03-14.08-31.04-36.25-3.17z" fill="#8dc63f" stroke="#666" stroke-linecap="round" stroke-linejoin="round" stroke-width="8"/><path d="m293.56 337.84c0-10.64-1.73-13.49-2.23-14.1-8.5.08-14.87 4.7-18.69 8.5a8.94 8.94 0 0 1 0 11.2l1 1c3.89 3.57 9.88 7.44 17.65 7.5.54-.6 2.27-3.45 2.27-14.1z" fill="#8dc63f"/><path d="m285.49 373.55c-5.7-14.2-13.45-22.63-15.89-25.07-.7-.65-1.33-1.28-1.91-1.89a8.85 8.85 0 0 1 -1.05.19c5.92 8.94 12.58 23 15.5 29.32z" fill="#8dc63f"/><path d="m265.61 341.1a3.26 3.26 0 1 0 0-6.51h-4a3.26 3.26 0 1 0 0 6.51z" fill="#8dc63f"/><path d="m259.57 329.1a8.91 8.91 0 0 1 2.08-.25h4a8.91 8.91 0 0 1 2.08.25 37.41 37.41 0 0 1 11.36-8.33l14.79-24.64a38.1 38.1 0 0 0 -10.45-3.73c-.85-.17-1.7-.3-2.54-.41l-21.89 36.52z" fill="#8dc63f"/><path d="m245.12 376.1c2.92-6.36 9.58-20.38 15.5-29.32a8.85 8.85 0 0 1 -1.05-.19c-.29.3-1.62 1.62-1.86 1.85-2.4 2.37-10.2 10.83-15.94 25.11z" fill="#8dc63f"/><path d="m169.33 227.55c13.81 0 25-9.31 25-20.76 0-6.45-3.56-12.22-9.15-16a11.24 11.24 0 0 1 .08 1.31c0 6.38-5.21 11.75-12.2 13.2v5.43a3.5 3.5 0 0 0 7 0 3.78 3.78 0 0 1 7.55 0 11 11 0 0 1 -18.28 8.27 11 11 0 0 1 -18.33-8.3 3.77 3.77 0 0 1 7.54 0 3.5 3.5 0 0 0 7 0v-5.43c-7-1.45-12.2-6.82-12.2-13.2a11.55 11.55 0 0 1 .08-1.32c-5.58 3.81-9.15 9.59-9.15 16 .02 11.49 11.25 20.8 25.06 20.8z" fill="#fff"/><path d="m169.33 238.79c32.3 0 58.57-22.13 58.57-49.32a43.7 43.7 0 0 0 -9.54-27 3.78 3.78 0 0 1 -.61-3.49 3.84 3.84 0 0 1 2.56-2.46 17.82 17.82 0 1 0 -22.68-17.14v1a3.76 3.76 0 0 1 -5.06 3.75 68.88 68.88 0 0 0 -46.54 0 3.77 3.77 0 0 1 -5.07-3.75c0-.35 0-.69 0-1a17.83 17.83 0 1 0 -22.68 17.14 3.77 3.77 0 0 1 2 5.95 43.7 43.7 0 0 0 -9.54 27c.02 27.19 26.26 49.32 58.59 49.32zm37.14-107a11.86 11.86 0 1 1 16.77 16.77 3.75 3.75 0 0 1 -5.33 0 3.77 3.77 0 0 1 0-5.33 4.32 4.32 0 0 0 -3-7.37 4.25 4.25 0 0 0 -3.05 1.27 3.78 3.78 0 1 1 -5.34-5.34zm-20.13 37.44a3.78 3.78 0 1 1 -1.1 2.67 3.81 3.81 0 0 1 1.1-2.66zm-39.36 0a3.75 3.75 0 1 1 -1.11 2.67 3.79 3.79 0 0 1 1.13-2.66zm22.35 9.24c18 0 32.58 12.7 32.58 28.31s-14.61 28.32-32.58 28.32-32.58-12.7-32.58-28.31 14.61-28.31 32.58-28.31zm-48.58-35.24a3.78 3.78 0 0 1 -2.67 6.44 3.73 3.73 0 0 1 -2.66-1.11 11.86 11.86 0 0 1 16.77-16.77 3.78 3.78 0 0 1 -5.34 5.34 4.31 4.31 0 0 0 -6.1 6.1z" fill="#8dc63f"/><path d="m101 325a6.91 6.91 0 0 0 -4 1.24c-3.76 2.62-4.16 8.56-.89 13.24a11 11 0 0 0 8.69 5 7 7 0 0 0 4.06-1.23 7.54 7.54 0 0 0 3-5.56 11.63 11.63 0 0 0 -2.16-7.69 11 11 0 0 0 -8.7-5z" fill="#8dc63f"/><path d="m169.33 198.11c4.57 0 8.43-2.77 8.43-6s-3.86-6-8.43-6c-4.57 0-8.43 2.76-8.43 6s3.86 6 8.43 6z" fill="#8dc63f"/><path d="m185.47 272.71c-4.95-1-9.66 1.53-12.91 6.9a3.77 3.77 0 0 1 -5.18 1.28 3.7 3.7 0 0 1 -1.27-1.28c-3.25-5.37-8-7.89-12.91-6.9-5.28 1.05-9.43 5.71-10.33 11.59-1.72 11.29 8.15 24.12 26.47 34.57 18.32-10.45 28.19-23.28 26.46-34.57-.9-5.88-5.05-10.54-10.33-11.59z" fill="#fff"/><path d="m100.08 299a2.68 2.68 0 0 1 .07.27l1.56 8.21a3.77 3.77 0 0 1 -3 4.41 3.35 3.35 0 0 1 -.71.11 3.78 3.78 0 0 1 -3.7-3.07l-1.56-8.21a3.77 3.77 0 0 1 1.28-3.6 24.58 24.58 0 0 0 -4.73-.49 18.46 18.46 0 0 0 -10.8 3.26c-4.28 3-7 7.77-7.95 13.64a3.78 3.78 0 0 1 3.83 0l7.17 4.29a3.77 3.77 0 0 1 -1.94 7 3.72 3.72 0 0 1 -1.94-.54l-7.17-4.28-.21-.14a38.47 38.47 0 0 0 7.1 19.41c6.8 9.73 17 15.78 26.59 15.78a18.46 18.46 0 0 0 10.8-3.26c5-3.48 7.91-9.39 8.25-16.63.34-7.61-2.19-15.7-7.14-22.78a38.76 38.76 0 0 0 -15.8-13.38zm-15.82 15.72-4.79-6.84a3.78 3.78 0 0 1 6.19-4.33l4.78 6.85a3.77 3.77 0 1 1 -6.18 4.32zm35.06 23.69a14.91 14.91 0 0 1 -6.22 11 14.54 14.54 0 0 1 -8.38 2.6 18.4 18.4 0 0 1 -14.87-8.19c-5.65-8.08-4.42-18.74 2.74-23.75a14.6 14.6 0 0 1 8.38-2.59 18.41 18.41 0 0 1 14.87 8.18 19.08 19.08 0 0 1 3.48 12.75z" fill="#fff"/><path d="m261 324.31a3.72 3.72 0 0 1 -1.94.54 3.77 3.77 0 0 1 -1.94-7l7.17-4.29a3.78 3.78 0 0 1 3.83 0c-.91-5.87-3.67-10.65-7.95-13.64a18.46 18.46 0 0 0 -10.8-3.26 24.77 24.77 0 0 0 -4.74.49 3.75 3.75 0 0 1 1.29 3.6l-1.56 8.21a3.78 3.78 0 0 1 -3.7 3.07 3.42 3.42 0 0 1 -.71-.07 3.77 3.77 0 0 1 -3-4.41l1.56-8.21a2.68 2.68 0 0 1 .07-.27 38.76 38.76 0 0 0 -15.8 13.37c-4.95 7.08-7.48 15.17-7.14 22.78.33 7.24 3.26 13.15 8.25 16.63a18.46 18.46 0 0 0 10.8 3.26c9.61 0 19.79-6.05 26.59-15.78a38.47 38.47 0 0 0 7.1-19.41l-.21.14zm-12.19 19.51a18.4 18.4 0 0 1 -14.87 8.18 14.54 14.54 0 0 1 -8.38-2.6 14.91 14.91 0 0 1 -6.22-11 19.08 19.08 0 0 1 3.48-12.75 18.41 18.41 0 0 1 14.87-8.18 14.55 14.55 0 0 1 8.37 2.59c7.17 5.02 8.4 15.67 2.75 23.76zm2.5-27.48a3.77 3.77 0 0 1 -3.09-5.94l4.78-6.85a3.78 3.78 0 1 1 6.19 4.33l-4.79 6.84a3.76 3.76 0 0 1 -3.09 1.62z" fill="#fff"/><path d="m241.74 326.26a6.91 6.91 0 0 0 -4.05-1.24 11 11 0 0 0 -8.69 5 11.63 11.63 0 0 0 -2.16 7.69 7.54 7.54 0 0 0 3 5.56 6.93 6.93 0 0 0 4.06 1.23 11 11 0 0 0 8.69-5c3.31-4.68 2.91-10.62-.85-13.24z" fill="#8dc63f"/><path d="m232.54 293.63c-.84-6.74-4.53-26.32-19.73-39.72a3.77 3.77 0 0 1 5-5.66c15.86 14 20.57 33.25 21.95 42.33a32.71 32.71 0 0 1 9.62-1.5 27.85 27.85 0 0 1 6 .65c4.87-.06 8.29-1.41 10.16-4 3.93-5.43 1-15.13.84-15.79-9.8-27-40.17-39.28-48.28-42.14-12.1 11.38-29.49 18.53-48.79 18.53s-36.69-7.15-48.78-18.52c-8.1 2.87-38.53 15.19-48.27 42.19-.92 2.86-2.53 11.15.85 15.79 1.87 2.59 5.29 3.93 10.15 4a27.85 27.85 0 0 1 6-.65 32.71 32.71 0 0 1 9.62 1.5c1.38-9.08 6.09-28.34 21.94-42.33a3.77 3.77 0 1 1 5 5.66c-15.19 13.4-18.88 33-19.72 39.72a47.26 47.26 0 0 1 15.94 14.44c5.9 8.44 8.91 18.19 8.49 27.46a33.46 33.46 0 0 1 -1.53 8.61 80.1 80.1 0 0 0 80.58 0 33.46 33.46 0 0 1 -1.51-8.67c-.42-9.27 2.59-19 8.49-27.46a47.16 47.16 0 0 1 15.98-14.44zm-61.4 32.87a3.79 3.79 0 0 1 -1.8.46 3.79 3.79 0 0 1 -1.8-.46c-32.27-17.6-33.21-36.17-32.11-43.33 1.37-9 7.93-16.19 16.31-17.86 6.52-1.3 12.83 1 17.61 6.11 4.78-5.15 11.09-7.41 17.61-6.11 8.38 1.67 14.94 8.84 16.31 17.85 1.08 7.17.14 25.74-32.13 43.34z" fill="#8dc63f"/><path d="m126.85 137.14a3.78 3.78 0 0 0 5.34-5.34 11.86 11.86 0 1 0 -16.77 16.77 3.75 3.75 0 0 0 5.33 0 3.77 3.77 0 0 0 0-5.33 4.31 4.31 0 1 1 6.1-6.1z" fill="#fff"/><path d="m211.81 137.14a4.3 4.3 0 0 1 6.1 0 4.32 4.32 0 0 1 0 6.1 3.78 3.78 0 0 0 2.67 6.44 3.73 3.73 0 0 0 2.66-1.11 11.86 11.86 0 0 0 -16.77-16.77 3.78 3.78 0 1 0 5.34 5.34z" fill="#fff"/><path d="m149.65 175.68a3.79 3.79 0 1 0 -2.67-1.11 3.8 3.8 0 0 0 2.67 1.11z" fill="#666"/><path d="m189 175.68a3.77 3.77 0 1 0 -2.67-1.11 3.78 3.78 0 0 0 2.67 1.11z" fill="#666"/><path d="m186.94 265.31c-6.52-1.3-12.83 1-17.61 6.11-4.78-5.15-11.09-7.41-17.61-6.11-8.38 1.67-14.94 8.84-16.31 17.86-1.1 7.16-.16 25.73 32.11 43.33a3.79 3.79 0 0 0 1.8.46 3.79 3.79 0 0 0 1.8-.46c32.27-17.6 33.21-36.17 32.11-43.34-1.35-9.01-7.91-16.16-16.29-17.85zm-17.61 53.56c-18.32-10.45-28.19-23.28-26.47-34.57.9-5.88 5-10.54 10.33-11.59 4.95-1 9.66 1.53 12.91 6.9a3.7 3.7 0 0 0 1.27 1.28 3.77 3.77 0 0 0 5.18-1.28c3.25-5.37 8-7.89 12.91-6.9 5.28 1.05 9.43 5.71 10.32 11.59 1.74 11.29-8.13 24.12-26.45 34.57z" fill="#666"/><path d="m101 317.48a14.6 14.6 0 0 0 -8.38 2.59c-7.16 5-8.39 15.67-2.74 23.75a18.4 18.4 0 0 0 14.84 8.18 14.54 14.54 0 0 0 8.38-2.6 14.91 14.91 0 0 0 6.22-11 19.08 19.08 0 0 0 -3.48-12.75 18.41 18.41 0 0 0 -14.84-8.17zm10.85 20.19a7.54 7.54 0 0 1 -3 5.56 7 7 0 0 1 -4.06 1.23 11 11 0 0 1 -8.69-5c-3.27-4.68-2.87-10.62.89-13.24a6.91 6.91 0 0 1 4-1.24 11 11 0 0 1 8.69 5 11.63 11.63 0 0 1 2.14 7.69z" fill="#666"/><path d="m89.51 315.66a3.78 3.78 0 0 0 .93-5.26l-4.78-6.85a3.78 3.78 0 0 0 -6.19 4.33l4.79 6.84a3.76 3.76 0 0 0 5.25.94z" fill="#666"/><path d="m246.06 320.07a14.55 14.55 0 0 0 -8.37-2.59 18.41 18.41 0 0 0 -14.87 8.18 19.08 19.08 0 0 0 -3.48 12.75 14.91 14.91 0 0 0 6.22 11 14.54 14.54 0 0 0 8.38 2.6 18.4 18.4 0 0 0 14.87-8.19c5.65-8.09 4.42-18.74-2.75-23.75zm-3.43 19.43a11 11 0 0 1 -8.69 5 6.93 6.93 0 0 1 -4.06-1.23 7.54 7.54 0 0 1 -3-5.56 11.63 11.63 0 0 1 2.12-7.71 11 11 0 0 1 8.69-5 6.91 6.91 0 0 1 4.05 1.24c3.76 2.64 4.16 8.58.89 13.26z" fill="#666"/><path d="m266.1 294.92a15.61 15.61 0 0 0 5.58-4.77c6.34-8.77 2.06-22 1.87-22.61v-.1c-10-27.58-37.91-41-49.84-45.64a51.25 51.25 0 0 0 11.76-32.33 50.57 50.57 0 0 0 -8.26-27.56 25.37 25.37 0 1 0 -36.8-26.36 76.83 76.83 0 0 0 -42.1 0 25.37 25.37 0 1 0 -36.8 26.36 50.57 50.57 0 0 0 -8.26 27.56 51.32 51.32 0 0 0 11.75 32.33c-11.93 4.62-39.86 18.06-49.83 45.64v.1c-.19.56-4.47 13.84 1.87 22.61a15.61 15.61 0 0 0 5.57 4.78c-6 4.92-9.44 12.37-9.84 21.23-.43 9.27 2.59 19 8.48 27.46 8.19 11.71 20.75 19 32.78 19a26.28 26.28 0 0 0 15.06-4.62 25.47 25.47 0 0 0 6.73-7 86.55 86.55 0 0 0 43.51 11.57 86.52 86.52 0 0 0 43.51-11.57 25.47 25.47 0 0 0 6.73 7 26.28 26.28 0 0 0 15.12 4.61c12 0 24.59-7.28 32.77-19 5.9-8.44 8.92-18.19 8.49-27.46-.4-8.85-3.89-16.31-9.85-21.23zm-155.34-105.45a43.7 43.7 0 0 1 9.54-27 3.77 3.77 0 0 0 -2-5.95 17.82 17.82 0 1 1 22.7-17.1v1a3.77 3.77 0 0 0 5.07 3.75 68.88 68.88 0 0 1 46.54 0 3.76 3.76 0 0 0 5.06-3.75c0-.35 0-.69 0-1a17.83 17.83 0 1 1 22.68 17.14 3.84 3.84 0 0 0 -2.56 2.46 3.78 3.78 0 0 0 .61 3.49 43.7 43.7 0 0 1 9.54 27c0 27.19-26.27 49.32-58.57 49.32s-58.61-22.17-58.61-49.36zm12.24 145.71c-.34 7.24-3.26 13.15-8.25 16.63a18.46 18.46 0 0 1 -10.8 3.26c-9.61 0-19.79-6.05-26.59-15.78a38.47 38.47 0 0 1 -7.1-19.41l.21.14 7.17 4.29a3.72 3.72 0 0 0 1.94.54 3.77 3.77 0 0 0 1.94-7l-7.17-4.29a3.78 3.78 0 0 0 -3.83 0c.91-5.87 3.67-10.65 7.95-13.64a18.46 18.46 0 0 1 10.8-3.26 24.58 24.58 0 0 1 4.73.49 3.77 3.77 0 0 0 -1.28 3.6l1.56 8.21a3.78 3.78 0 0 0 3.72 3.04 3.35 3.35 0 0 0 .71-.07 3.77 3.77 0 0 0 3-4.41l-1.56-8.21a2.68 2.68 0 0 0 -.07-.27 38.76 38.76 0 0 1 15.8 13.37c4.95 7.07 7.48 15.16 7.12 22.77zm85.09.35a33.46 33.46 0 0 0 1.51 8.67 80.1 80.1 0 0 1 -80.58 0 33.46 33.46 0 0 0 1.51-8.67c.42-9.27-2.59-19-8.49-27.46a47.26 47.26 0 0 0 -15.94-14.44c.84-6.74 4.53-26.32 19.72-39.72a3.77 3.77 0 1 0 -5-5.66c-15.85 14-20.56 33.25-21.94 42.33a32.71 32.71 0 0 0 -9.62-1.5 27.85 27.85 0 0 0 -6 .65c-4.86-.06-8.28-1.4-10.15-4-3.38-4.64-1.77-12.93-.85-15.79 9.74-26.94 40.17-39.26 48.29-42.13 12.09 11.37 29.48 18.52 48.78 18.52s36.69-7.15 48.79-18.53c8.11 2.86 38.48 15.16 48.28 42.14.2.66 3.09 10.36-.84 15.79-1.87 2.59-5.29 3.94-10.16 4a27.85 27.85 0 0 0 -6-.65 32.71 32.71 0 0 0 -9.62 1.5c-1.38-9.08-6.09-28.34-21.95-42.33a3.77 3.77 0 0 0 -5 5.66c15.2 13.4 18.89 33 19.73 39.72a47.16 47.16 0 0 0 -15.94 14.44c-5.92 8.44-8.93 18.19-8.51 27.46zm53.17 3.76c-6.8 9.73-17 15.78-26.59 15.78a18.46 18.46 0 0 1 -10.8-3.26c-5-3.48-7.92-9.39-8.25-16.63-.34-7.61 2.19-15.7 7.14-22.78a38.76 38.76 0 0 1 15.82-13.4 2.68 2.68 0 0 0 -.07.27l-1.51 8.24a3.77 3.77 0 0 0 3 4.41 3.42 3.42 0 0 0 .71.07 3.78 3.78 0 0 0 3.7-3.07l1.56-8.21a3.75 3.75 0 0 0 -1.29-3.6 24.77 24.77 0 0 1 4.74-.49 18.46 18.46 0 0 1 10.8 3.26c4.28 3 7 7.77 7.95 13.64a3.78 3.78 0 0 0 -3.83 0l-7.17 4.29a3.77 3.77 0 0 0 1.94 7 3.72 3.72 0 0 0 1.94-.54l7.17-4.29.21-.14a38.47 38.47 0 0 1 -7.15 19.45z" fill="#666"/><path d="m258.26 302.62a3.79 3.79 0 0 0 -5.26.93l-4.78 6.85a3.77 3.77 0 1 0 6.18 4.32l4.79-6.84a3.79 3.79 0 0 0 -.93-5.26z" fill="#666"/><path d="m169.33 235.1c18 0 32.58-12.7 32.58-28.31s-14.61-28.31-32.58-28.31-32.58 12.7-32.58 28.31 14.61 28.31 32.58 28.31zm0-49.07c4.57 0 8.43 2.76 8.43 6s-3.86 6-8.43 6-8.43-2.77-8.43-6 3.86-6.03 8.43-6.03zm-15.89 4.72a11.55 11.55 0 0 0 -.08 1.32c0 6.38 5.21 11.75 12.2 13.2v5.43a3.5 3.5 0 0 1 -7 0 3.77 3.77 0 0 0 -7.54 0 11 11 0 0 0 18.31 8.3 11 11 0 0 0 18.32-8.29 3.78 3.78 0 0 0 -7.55 0 3.5 3.5 0 0 1 -7 0v-5.43c7-1.45 12.2-6.82 12.2-13.2a11.24 11.24 0 0 0 -.08-1.31c5.59 3.81 9.15 9.58 9.15 16 0 11.45-11.23 20.76-25 20.76s-25-9.31-25-20.76c-.08-6.43 3.49-12.21 9.07-16.02z" fill="#666"/><path d="m235.93 323.74c-.5.61-2.23 3.46-2.23 14.1s1.72 13.5 2.23 14.1c7.76-.06 13.75-3.92 17.64-7.49.47-.47 1-1 1.05-1a8.94 8.94 0 0 1 0-11.2c-3.81-3.81-10.19-8.43-18.69-8.51z" fill="#8dc63f"/><path d="m236.58 376.81a2.87 2.87 0 0 1 -1-3.29 90.9 90.9 0 0 1 8.49-17.07c-.7.21-1.41.4-2.15.56l-32.72 54.72q5.16 3.82 10.84 7.56l22.69-37.77z" fill="#8dc63f"/><path d="m169.79 380.19a95.36 95.36 0 0 1 -8.69-15.65l.1 8.33c1.63 13.59 9.63 37.07 41.39 62.85v-21.84c-13.84-10.69-24.82-21.96-32.8-33.69z" fill="#8dc63f"/><path d="m241.86 435.64v22.61c60.19-34.05 72.82-67.9 74.92-85.38l.1-8.33a96.11 96.11 0 0 1 -8.69 15.65c-13.62 20.01-35.93 38.66-66.33 55.45z" fill="#8dc63f"/><path d="m298.71 299.17-11.49 19.15a30.46 30.46 0 0 1 4.13-.32 4.79 4.79 0 0 1 3.37 1.08c3.08 2.4 4.58 8.53 4.58 18.76s-1.5 16.37-4.58 18.77a4.8 4.8 0 0 1 -3 1.09h-.38a28.81 28.81 0 0 1 -8.19-1.22 91.11 91.11 0 0 1 8.48 17.06 2.87 2.87 0 0 1 -1 3.29l-7.94 6a2.81 2.81 0 0 1 -1.73.59 2.87 2.87 0 0 1 -2.63-1.71c-.08-.18-6.67-15-13.2-26.36l-40.27 67q6.72 4.2 14.08 8.27c29.65-16.36 51.33-34.43 64.45-53.71 10.92-16 15.47-32.55 13.16-47.7a45.54 45.54 0 0 0 -17.84-30.04z" fill="#fff" stroke="#666" stroke-linecap="round" stroke-linejoin="round" stroke-width="4"/><path d="m232.54 356.61c-3.08-2.4-4.58-8.54-4.58-18.77s1.5-16.36 4.58-18.76a4.79 4.79 0 0 1 3.37-1.08 31.11 31.11 0 0 1 18.72 6.65l19.68-32.91c-12.83.71-24.48 8.54-32.87 22.39a2.86 2.86 0 0 1 -4.91 0c-10.33-17.06-25.61-25-41.94-21.73-17 3.39-30.36 18.2-33.21 36.86-2.31 15.15 2.24 31.65 13.16 47.7q11.06 16.25 30.11 31.26l30.24-50.57a5 5 0 0 1 -2.35-1.04z" fill="#fff"/><path d="m227 410.21q4.35 2.76 9.23 5.53v-17.06q-4.8-2.65-9.23-5.38z" fill="#8dc63f"/><path d="m215.24 402.13q3.48 2.61 7.4 5.26v-16.83q-3.84-2.51-7.4-5.07z" fill="#8dc63f"/><path d="m284.51 286.77a40.89 40.89 0 0 0 -25.59 3.14c-7.67 3.61-14.36 9.48-19.93 17.47-5.57-8-12.26-13.86-19.93-17.47a40.9 40.9 0 0 0 -25.59-3.14c-19.38 3.86-34.56 20.59-37.76 41.62a56.81 56.81 0 0 0 -.65 9.6s.41 35.3.42 35.4c1.78 15.19 9 30.41 21.3 45.22 14.07 16.87 34.53 32.69 60.83 47a2.86 2.86 0 0 0 1.39.39 2.93 2.93 0 0 0 1.37-.35c26.31-14.35 46.77-30.17 60.84-47 12.35-14.81 19.52-30 21.3-45.22 0-.1.42-35.36.42-35.4a57.87 57.87 0 0 0 -.65-9.6c-3.22-21.07-18.39-37.8-37.77-41.66zm-3.66 5.23c.84.11 1.69.24 2.54.41a38.1 38.1 0 0 1 10.45 3.73l-14.79 24.64a37.41 37.41 0 0 0 -11.36 8.33 8.91 8.91 0 0 0 -2.08-.25h-4a8.91 8.91 0 0 0 -2.08.25l-.56-.59zm-26.23 51.45s-.58.54-1.05 1c-3.89 3.57-9.88 7.43-17.64 7.49-.51-.6-2.23-3.42-2.23-14.1s1.73-13.49 2.23-14.1c8.5.08 14.88 4.7 18.69 8.5a8.94 8.94 0 0 0 0 11.2zm3.09 5c.24-.23 1.57-1.55 1.86-1.85a8.85 8.85 0 0 0 1.05.19c-5.92 8.94-12.58 23-15.5 29.32l-3.35-2.55c5.74-14.29 13.54-22.75 15.94-25.12zm.68-10.6a3.26 3.26 0 0 1 3.26-3.25h4a3.26 3.26 0 1 1 0 6.51h-4a3.26 3.26 0 0 1 -3.26-3.27zm9.3 8.75c.58.61 1.21 1.24 1.91 1.89 2.44 2.44 10.19 10.87 15.89 25.07l-3.35 2.55c-2.92-6.36-9.58-20.38-15.5-29.32a8.85 8.85 0 0 0 1.05-.2zm4.95-3.15a8.94 8.94 0 0 0 0-11.2c3.82-3.8 10.19-8.42 18.69-8.5.5.61 2.23 3.46 2.23 14.1s-1.73 13.5-2.23 14.1c-7.77-.06-13.76-3.93-17.65-7.5zm-70 92.28c-31.76-25.78-39.76-49.26-41.39-62.85l-.1-8.33a95.36 95.36 0 0 0 8.69 15.65c8 11.73 19 23 32.8 33.69zm-28.1-58.73c-10.92-16-15.47-32.55-13.16-47.7 2.85-18.66 16.19-33.47 33.21-36.86 16.33-3.25 31.61 4.67 41.94 21.73a2.86 2.86 0 0 0 4.91 0c8.39-13.85 20-21.68 32.87-22.39l-19.68 32.91a31.11 31.11 0 0 0 -18.72-6.69 4.79 4.79 0 0 0 -3.37 1.08c-3.08 2.4-4.58 8.53-4.58 18.76s1.5 16.37 4.58 18.77a5 5 0 0 0 2.35 1l-30.24 50.57q-19-14.93-30.11-31.18zm43.6 70.22c-3.48-2.34-6.74-4.66-9.81-7v-22q4.71 3.39 9.81 6.71zm-8.9-35.45 32.76-54.77c.74-.16 1.45-.35 2.15-.56a90.9 90.9 0 0 0 -8.49 17.07 2.87 2.87 0 0 0 1 3.29l6.19 4.71-22.69 37.77q-5.75-3.71-10.92-7.55zm26.88 46.52q-6.48-3.67-12.24-7.33v-22.45q5.88 3.62 12.24 7.13zm80.66-85.38c-2.1 17.48-14.73 51.33-74.92 85.38v-22.65c30.4-16.79 52.71-35.44 66.33-55.45a96.11 96.11 0 0 0 8.69-15.65zm-13.34 4.09c-13.12 19.28-34.8 37.35-64.45 53.71q-7.37-4.07-14.08-8.27l40.27-67c6.53 11.32 13.12 26.18 13.2 26.36a2.87 2.87 0 0 0 2.63 1.71 2.81 2.81 0 0 0 1.73-.59l7.94-6a2.87 2.87 0 0 0 1-3.29 91.11 91.11 0 0 0 -8.48-17.06 28.81 28.81 0 0 0 8.19 1.22h.38a4.8 4.8 0 0 0 3-1.09c3.08-2.4 4.58-8.54 4.58-18.77s-1.5-16.36-4.58-18.76a4.79 4.79 0 0 0 -3.37-1.08 30.46 30.46 0 0 0 -4.13.32l11.49-19.15a45.54 45.54 0 0 1 17.89 30.09c2.26 15.06-2.29 31.56-13.21 47.65z" fill="#666"/></g></svg>